# xmcd
#
# Track frame offsets:
#	182
#	26355
#	42012
#	56012
#	70500
#	89817
#	99267
#	109452
#	126927
#	145125
#	158382
#	173375
#	186597
#	196607
#	210815
#	223635
#
# Disc length: 3268 seconds
#
# Revision: 4
# Processed by: cddbd v1.4PL0 Copyright (c) Steve Scherf et al.
# Submitted via: MusicWizard 6.0.2
#
DISCID=d10cc210
DTITLE=Various Artist - Black and White - The Little Red Rooster
DYEAR=1988
DGENRE=Blues
TTITLE0=Chuck Berry - Mean Old World
TTITLE1=Bo Diddley - Cops and Robbers
TTITLE2=Willie Mabon - I Don't Know
TTITLE3=Eddie Boyd - Third Degree
TTITLE4=Muddy Waters - Got My Mojo Working
TTITLE5=John Lee Hooker - Hey Boogie
TTITLE6=Otis Rush - I Can't Stop
TTITLE7=Howlin' Wolf - Little Red Rooster
TTITLE8=Eric Burdon and The Animals - See See Rider
TTITLE9=Rod Stewart - Outskirts Of Town
TTITLE10=Canned Heat - She's Lookin' Good
TTITLE11=Peter Green - Born Under A Bad Sign
TTITLE12=Captain Beefheart and His Magic Band - Sure "Nuff" 'n Yes, I Do
TTITLE13=Eric Clapton - Ramblin' On My Mind
TTITLE14=Johnny Winter - Leavin' Blues
TTITLE15=Das Dritte Ohr - You, You Woman
EXTD=
EXTT0=
EXTT1=
EXTT2=
EXTT3=
EXTT4=
EXTT5=
EXTT6=
EXTT7=
EXTT8=
EXTT9=
EXTT10=
EXTT11=
EXTT12=
EXTT13=
EXTT14=
EXTT15=
PLAYORDER=
